# xmcd
#
# Track frame offsets:
# 150
# 15410
# 31038
# 42818
# 56851
# 73696
# 94241
# 116595
# 133784
# 154110
# 172524
# 188285
# 198149
# 215887
# 240208
# 252639
# 269270
#
# Disc length: 4024 seconds
#
# Revision: 7
# Processed by: cddbd v1.5PL3 Copyright (c) Steve Scherf et al.
# Submitted via: plextools 2.08
#
DISCID=de0fb611
DTITLE=TAK MATSUMOTO - THE HIT PARADE
DYEAR=2003
DGENRE=
TTITLE0=TAK MATSUMOTO featuring 稲葉浩志 - 勝手にしやがれ
TTITLE1=TAK MATSUMOTO featuring ZARD - 異邦人
TTITLE2=TAK MATSUMOTO featuring 愛内里菜 - 涙の太陽
TTITLE3=TAK MATSUMOTO featuring 三枝夕夏・北原愛子・高岡亜衣 - その気にさせないで
TTITLE4=TAK MATSUMOTO featuring 倉木麻衣 - イミテイション・ゴールド
TTITLE5=TAK MATSUMOTO - 港のヨーコ・ヨコハマ・ヨコスカ
TTITLE6=TAK MATSUMOTO featuring 松田明子 - 雨の街を
TTITLE7=TAK MATSUMOTO featuring Fayray - Paper Doll
TTITLE8=TAK MATSUMOTO featuring 菅崎茜 - 「いちご白書」をもう一度
TTITLE9=TAK MATSUMOTO featuring 滴草由実 - Foggy Night
TTITLE10=TAK MATSUMOTO featuring 上原あずみ - 少女A
TTITLE11=TAK MATSUMOTO featuring 川島だりあ - ビュン・ビュン
TTITLE12=TAK MATSUMOTO featuring 竹井詩織里 - パープルタウン ("You Oughta Know By Now"〜"パープルタウン")
TTITLE13=TAK MATSUMOTO featuring 宇徳敬子 - 時に愛は
TTITLE14=TAK MATSUMOTO - SPINNING TOE-HOLD
TTITLE15=TAK MATSUMOTO featuring Jeffrey Qwest - 一人 〜I Stand Alone〜
TTITLE16=TAK MATSUMOTO featuring 中村由利 - 私は風
EXTD=
EXTT0=
EXTT1=
EXTT2=
EXTT3=
EXTT4=
EXTT5=
EXTT6=
EXTT7=
EXTT8=
EXTT9=
EXTT10=
EXTT11=
EXTT12=
EXTT13=
EXTT14=
EXTT15=
EXTT16=
PLAYORDER=
